<?xml version="1.0" encoding="UTF-8" standalone="no"?>
<svg xmlns="http://www.w3.org/2000/svg" viewBox="0 0 256 256" role="img" aria-labelledby="title desc">
  <title id="title">pp icon</title>
  <desc id="desc">Power Platform CLI monogram on transparent background.</desc>
  <path
    fill="#1a1a19"
    d="m 38.200064,124.6 c 2.9,-2.8 5.9,-5.2 8.9,-7.3 l -27.8,100.7 c -1.3,4.8 -2.4,6.4 -8.7,8.2 -2.9999999,1.6 -4.1999999,3 -4.1999999,5 0,2.6 1.7,4.2 4.5999999,4.2 l 45.9,-0.8 c 3.3,0 5.5,-1.9 5.5,-4.9 0,-1.8 -1.1,-3.1 -3.8,-3.8 l -6.2,-1.1 c -4.2,-0.8 -4.4,-3.6 -3,-8.9 l 8.2,-30.6 c 4.5,2.6 10.3,4.2 17.5,4.2 24.6,0.1 46.499996,-19.3 48.599996,-50.8 1.9,-24.8 -11.6,-41.7 -37.299996,-41.9 -1.8,0 -3.5,0.1 -5.2,0.1 l 1.2,-4.7 c 2,-7.7 0.5,-11.7 -4.8,-11.7 -5.9,0 -23,9 -25,16.7 l -2,7.4 c -6.3,3.3 -11.7,7.4 -16.2,12.1 -2.9,2.9 -4,6.5 -2.2,8.4 1.4,1.5 3.8,1.4 6,-0.5 z m 29.3,54.2 c -2.9,-0.1 -5.4,-0.8 -7.6,-2.3 l 18.6,-69.6 c 0.4,0 0.8,0 1.3,0 9.6,0.2 16,9 13,30.4 -3.1,26.2 -13.8,41.6 -25.3,41.5 z M 140.4,124.6 c 2.9,-2.8 5.9,-5.2 8.9,-7.3 L 121.5,218 c -1.3,4.8 -2.4,6.4 -8.7,8.2 -3,1.6 -4.2,3 -4.2,5 0,2.6 1.7,4.2 4.6,4.2 l 45.9,-0.8 c 3.3,0 5.5,-1.9 5.5,-4.9 0,-1.8 -1.1,-3.1 -3.8,-3.8 l -6.2,-1.1 c -4.2,-0.8 -4.4,-3.6 -3,-8.9 l 8.2,-30.6 c 4.5,2.6 10.3,4.2 17.5,4.2 24.6,0.1 46.5,-19.3 48.6,-50.8 1.9,-24.8 -11.6,-41.7 -37.3,-41.9 -1.8,0 -3.5,0.1 -5.2,0.1 l 1.2,-4.7 c 2,-7.7 0.5,-11.7 -4.8,-11.7 -5.9,0 -23,9 -25,16.7 l -2,7.4 c -6.3,3.3 -11.7,7.4 -16.2,12.1 -2.9,2.9 -4,6.5 -2.2,8.4 1.4,1.5 3.8,1.4 6,-0.5 z m 29.3,54.2 c -2.9,-0.1 -5.4,-0.8 -7.6,-2.3 l 18.6,-69.6 c 0.4,0 0.8,0 1.3,0 9.6,0.2 16,9 13,30.4 -3.1,26.2 -13.8,41.6 -25.3,41.5 z"
  />
</svg>
